<svg id="calories" xmlns="http://www.w3.org/2000/svg" width="24" height="24.001" viewBox="0 0 24 24.001">
  <rect id="사각형_4177" data-name="사각형 4177" width="24" height="24" fill="none"/>
  <path id="패스_7061" data-name="패스 7061" d="M6.653,497.864s-4.212-.285-5.767-3.7c-1.746-3.836-.575-6.664.638-8.842,0,0-.272,4.064.907,3.3.931-.6-.09-1.715-.09-4.1a7.009,7.009,0,0,1,2.093-4.663s-1,2.371.527,3.975a6.171,6.171,0,0,1,2.612-5.706c1.894-1.474.741-4.261.741-4.261a5.412,5.412,0,0,1,1.72,5.437,3.227,3.227,0,0,0,.435,2.871c.479.759.831,1.048,1.3,1.874,0,0,.211.017.013-1.466-.179-1.346,1.273-2.175,1.273-2.175s-.847,1.39,2.081,5.279c2.491,3.309,2.653,11.055-5.164,12.181,0,0,4.056-2.6,3.571-5.6a2.815,2.815,0,0,1-1.76,1.481,7.988,7.988,0,0,0,.09-4.63,2.814,2.814,0,0,1-1.379,2.452,3.135,3.135,0,0,0-.741-2.452,2.877,2.877,0,0,1-.3-2.339s-1.212,1.811-.97,2.355a4.5,4.5,0,0,1-1.006-3.621,16.284,16.284,0,0,0-.764,2.062,6.9,6.9,0,0,0-.012,3.841,2.811,2.811,0,0,1-1.592-2.39,5,5,0,0,0,.3,5.08s-1.22.343-2.2-1.387a6.406,6.406,0,0,0,3.431,5.146" transform="translate(4 -473.863)" fill="#848484"/>
</svg>
