<svg id="clown_gold" xmlns="http://www.w3.org/2000/svg" width="16" height="16" viewBox="0 0 16 16">
  <path id="패스_6778" data-name="패스 6778" d="M0,0H16V16H0Z" transform="translate(0)" fill="none"/>
  <g id="Layer_3" data-name="Layer 3" transform="translate(-1.2 -2.285)">
    <path id="패스_6769" data-name="패스 6769" d="M1.858,11.93a.658.658,0,1,0,.658.658.658.658,0,0,0-.658-.658Z" transform="translate(0 -4.407)" fill="#efab22"/>
    <path id="패스_6770" data-name="패스 6770" d="M33.747,12.594a.654.654,0,1,1-.654-.654.654.654,0,0,1,.654.654Z" transform="translate(-16.547 -4.412)" fill="#efab22"/>
    <path id="패스_6771" data-name="패스 6771" d="M17.489,4.917a.654.654,0,1,0-.649-.654.654.654,0,0,0,.649.654Z" transform="translate(-8.284)" fill="#efab22"/>
    <path id="패스_6772" data-name="패스 6772" d="M16.821,12.365a8.753,8.753,0,0,0-1.707.583,10.145,10.145,0,0,0-1.881,1.171,9.03,9.03,0,0,1-1.063-1.641,23.008,23.008,0,0,1-1.185-3.095.5.5,0,0,0-.941,0,22.773,22.773,0,0,1-1.185,3.095A8.79,8.79,0,0,1,7.8,14.115a10.728,10.728,0,0,0-1.881-1.166,8.856,8.856,0,0,0-1.665-.583.468.468,0,0,0-.531.658A26.291,26.291,0,0,1,5.6,19.373a.47.47,0,0,0,.47.39h8.936a.47.47,0,0,0,.47-.39,26.291,26.291,0,0,1,1.881-6.349.469.469,0,0,0-.536-.658ZM7.156,18.221a.522.522,0,1,1,.517-.522.522.522,0,0,1-.517.522Zm3.363,0a.522.522,0,1,1,.473-.52A.522.522,0,0,1,10.518,18.221Zm3.367,0A.522.522,0,1,1,14.4,17.7a.522.522,0,0,1-.517.522Z" transform="translate(-1.309 -2.881)" fill="#efab22"/>
  </g>
</svg>
