<svg id="difficulty_large_selected" xmlns="http://www.w3.org/2000/svg" width="32" height="32" viewBox="0 0 32 32">
  <rect id="사각형_3912" data-name="사각형 3912" width="32" height="32" fill="none"/>
  <path id="star" d="M32,11.97a1.411,1.411,0,0,1-.5.934l-6.98,6.89,1.654,9.732a2.927,2.927,0,0,1,.02.39,1.158,1.158,0,0,1-.2.691.677.677,0,0,1-.588.282,1.539,1.539,0,0,1-.769-.234L16,26.061,7.365,30.655a1.617,1.617,0,0,1-.769.234.7.7,0,0,1-.605-.282,1.162,1.162,0,0,1-.2-.691,3.219,3.219,0,0,1,.038-.39l1.654-9.732-7-6.89A1.489,1.489,0,0,1,0,11.97q0-.72,1.077-.9l9.654-1.421L15.057.8Q15.423,0,16,0t.942.8l4.327,8.856,9.654,1.421Q32,11.25,32,11.97Z" transform="translate(0 0.555)" fill="#ff6c08"/>
</svg>
