<svg id="error" xmlns="http://www.w3.org/2000/svg" width="48" height="48" viewBox="0 0 48 48">
  <path id="패스_7042" data-name="패스 7042" d="M30,6A24,24,0,1,0,54,30,24,24,0,0,0,30,6Zm0,44A20,20,0,1,1,50,30,20,20,0,0,1,30,50Z" transform="translate(-6 -6)" fill="#d4d4d4"/>
  <path id="패스_7043" data-name="패스 7043" d="M19.3,28.67a2.6,2.6,0,0,1-2.6-2.6v-12a2.6,2.6,0,0,1,5.2,0v12a2.6,2.6,0,0,1-2.6,2.6Z" transform="translate(4.7 -0.529)" fill="#d4d4d4"/>
  <path id="패스_7044" data-name="패스 7044" d="M22.45,24.52a3,3,0,1,1-3-3,3,3,0,0,1,3,3Z" transform="translate(4.45 9.52)" fill="#d4d4d4"/>
</svg>
