<svg xmlns="http://www.w3.org/2000/svg" width="84.033" height="72.163" viewBox="0 0 84.033 72.163">
  <g id="pulse-svgrepo-com" transform="translate(0 -36.162)">
    <g id="그룹_445" data-name="그룹 445" transform="translate(0 36.162)">
      <g id="그룹_444" data-name="그룹 444">
        <path id="패스_2284" data-name="패스 2284" d="M60.854,36.162a23.2,23.2,0,0,0-18.838,9.672A23.179,23.179,0,0,0,0,59.341C0,64.874,2.841,71.2,8.445,78.154A113.865,113.865,0,0,0,22.075,91.91c4.607,4.036,18.722,15.9,18.864,16.022a1.674,1.674,0,0,0,2.154,0c.142-.119,14.257-11.985,18.864-16.022A113.852,113.852,0,0,0,75.588,78.154c5.6-6.95,8.445-13.28,8.445-18.813A23.2,23.2,0,0,0,60.854,36.162Zm-1.1,53.23c-3.835,3.361-14.335,12.209-17.735,15.071-3.4-2.862-13.9-11.71-17.735-15.071-3.019-2.646-9.636-8.444-14.628-15.14h6.058l5.871,5.871a1.674,1.674,0,0,0,2.858-1.184V67.078L43.26,85.9a1.674,1.674,0,0,0,2.858-1.184V62.056L59.539,75.478a1.674,1.674,0,0,0,1.184.49h2.218a1.674,1.674,0,1,0,0-3.348H61.417L45.628,56.831a1.674,1.674,0,0,0-2.858,1.184V80.673L23.95,61.853a1.674,1.674,0,0,0-2.858,1.184V74.9l-3.5-3.5A1.674,1.674,0,0,0,16.4,70.9H7.358c-2.381-3.82-4.01-7.8-4.01-11.564a19.832,19.832,0,0,1,37.2-9.568,1.674,1.674,0,0,0,2.931,0,19.832,19.832,0,0,1,37.2,9.568C80.685,71.051,64.929,84.856,59.751,89.392Z" transform="translate(0 -36.162)" fill="#fff"/>
      </g>
    </g>
    <g id="그룹_447" data-name="그룹 447" transform="translate(67.126 72.62)">
      <g id="그룹_446" data-name="그룹 446">
        <path id="패스_2285" data-name="패스 2285" d="M411.332,258.3h-.67a1.674,1.674,0,1,0,0,3.348h.67a1.674,1.674,0,0,0,0-3.348Z" transform="translate(-408.988 -258.295)" fill="#fff"/>
      </g>
    </g>
  </g>
</svg>
