<svg id="icon_4" xmlns="http://www.w3.org/2000/svg" width="32" height="32" viewBox="0 0 32 32">
  <rect id="사각형_3933" data-name="사각형 3933" width="32" height="32" fill="none" opacity="0.47"/>
  <g id="그룹_4547" data-name="그룹 4547" transform="translate(4.684 1.461)">
    <path id="합치기_7" data-name="합치기 7" d="M11.778,28.021a23.875,23.875,0,0,1-5.7.76,14.42,14.42,0,0,1-3.759-.462A2,2,0,0,1,.867,26.691c-.945-6.207,4.264-10.149,4.484-10.314a2.009,2.009,0,0,1,.259-.164q.277-.21.573-.41a4.737,4.737,0,1,1,4.223-2.2c.8-.342,1.514-.629,2.049-.861.459-1.173,1.123-3.519.032-5.354C11.182,5.2,7.552,4.028,1.99,4a2,2,0,1,1,.022-4,23.566,23.566,0,0,1,9.729,1.745,9.194,9.194,0,0,1,4.2,3.632c2.247,3.811.565,8.184-.08,9.575,2.955,3.2,4.358,5.21,9.308,14.417l-13.519.171A3.641,3.641,0,0,0,11.778,28.021Zm-7-3.3a18.01,18.01,0,0,0,6.14-.606,10.563,10.563,0,0,0-3.428-4.319A7.823,7.823,0,0,0,4.776,24.719Z" transform="translate(0 0)" fill="#fff" stroke="rgba(0,0,0,0)" stroke-miterlimit="10" stroke-width="1"/>
  </g>
</svg>
