<svg id="icon_3" xmlns="http://www.w3.org/2000/svg" width="32" height="32" viewBox="0 0 32 32">
  <g id="그룹_4561" data-name="그룹 4561" transform="translate(0.334 1.334)">
    <path id="빼기_3" data-name="빼기 3" d="M15,30A15,15,0,0,1,9.161,1.179,15,15,0,0,1,20.839,28.821,14.905,14.905,0,0,1,15,30Zm-4.749-8.5a1.25,1.25,0,0,0-.695,2.29,9.256,9.256,0,0,0,5.175,1.672c.18,0,.363-.006.543-.018a9.475,9.475,0,0,0,4.668-1.655,1.25,1.25,0,0,0-1.386-2.08,6.835,6.835,0,0,1-3.816,1.245,6.815,6.815,0,0,1-3.8-1.245A1.244,1.244,0,0,0,10.252,21.5ZM18,12a1.25,1.25,0,0,0-.848,2.169A7.086,7.086,0,0,0,19.4,15.614a5.136,5.136,0,0,0,1.844.348c.162,0,.307-.006.442-.018a6.251,6.251,0,0,0,3.666-1.776,1.25,1.25,0,1,0-1.7-1.835,3.644,3.644,0,0,1-2.42,1.133,3.649,3.649,0,0,1-2.385-1.133A1.24,1.24,0,0,0,18,12ZM5.5,12a1.25,1.25,0,0,0-.848,2.169A7.1,7.1,0,0,0,6.9,15.614a5.151,5.151,0,0,0,1.844.348c.162,0,.306-.006.442-.018a6.249,6.249,0,0,0,3.665-1.776,1.249,1.249,0,1,0-1.695-1.835,3.649,3.649,0,0,1-2.421,1.133,3.647,3.647,0,0,1-2.385-1.133A1.24,1.24,0,0,0,5.5,12Z" transform="translate(-0.333 -0.333)" fill="#fff"/>
  </g>
  <rect id="사각형_3937" data-name="사각형 3937" width="32" height="32" fill="none"/>
</svg>
