<svg id="icon_6" xmlns="http://www.w3.org/2000/svg" xmlns:xlink="http://www.w3.org/1999/xlink" width="32" height="32" viewBox="0 0 32 32">
  <defs>
    <clipPath id="clip-path">
      <rect id="사각형_3964" data-name="사각형 3964" width="32" height="32" transform="translate(-0.333)" fill="#fff" opacity="0.46"/>
    </clipPath>
  </defs>
  <g id="그룹_4633" data-name="그룹 4633" transform="translate(0.333)" clip-path="url(#clip-path)">
    <g id="그룹_4632" data-name="그룹 4632" transform="translate(1.717 0.403)">
      <path id="합치기_11" data-name="합치기 11" d="M16.778,28.818l-.344-8.479-3.3.029-2.077-4.18,8.151-.078a2.25,2.25,0,0,1,2.107,3.245l-.381,9.559c.092,1.252-.981,1.822-2.067,1.822C17.675,30.736,16.467,30.046,16.778,28.818ZM0,14.411A16.155,16.155,0,0,1,3.009,6.565c1.958-2.336,4.2-1.423,5.959-.121a16.763,16.763,0,0,0,5.284,1.322,14.867,14.867,0,0,0,1.9.016c.121-.007.243-.016.364-.028a15.618,15.618,0,0,0,4.326-1,2.127,2.127,0,1,1,1.53,3.97,20.068,20.068,0,0,1-4.861,1.212,18.756,18.756,0,0,1-3.562.077,20.065,20.065,0,0,1-4.556-.882l-.935,4.454c-.072.152-.378.215-.834.215A49.943,49.943,0,0,1,0,14.411ZM10.286,5.967C8.737,5.327,6.751,4.3,6.7,4.271A4.22,4.22,0,0,1,8.454.9a4.482,4.482,0,0,1,6.4,6.1h-.03A14.46,14.46,0,0,1,10.286,5.967Z" transform="translate(5.404 0.25)" fill="#fff"/>
      <path id="합치기_5_-_윤곽선" data-name="합치기 5 - 윤곽선" d="M511.848,13901.347h0a2.641,2.641,0,0,1-2.07-.857,1.535,1.535,0,0,1-.272-1.336l-.333-8.2-3.212.027-2.324-4.677,8.55-.082h.029a2.479,2.479,0,0,1,2.068,1,2.793,2.793,0,0,1,.26,2.539l-.379,9.509a1.782,1.782,0,0,1-.455,1.371A2.525,2.525,0,0,1,511.848,13901.347Zm-2.2-10.9.356,8.757-.009.035a1.043,1.043,0,0,0,.173.941,2.171,2.171,0,0,0,1.676.665h0a2.031,2.031,0,0,0,1.494-.545,1.282,1.282,0,0,0,.322-1.009v-.028l.383-9.6.012-.035a2.312,2.312,0,0,0-.184-2.12,1.962,1.962,0,0,0-1.661-.792h-.024l-7.752.074,1.83,3.682Zm-9.056-4.041a49.2,49.2,0,0,1-7.679-1.394l-.2-.05.007-.2a11.8,11.8,0,0,1,.435-2.43,18.173,18.173,0,0,1,2.618-5.549l.014-.019a3.774,3.774,0,0,1,2.925-1.529,5.768,5.768,0,0,1,3.35,1.351,16.593,16.593,0,0,0,5.178,1.292c.351.025.706.038,1.055.038.269,0,.54-.008.808-.022.112-.008.233-.016.351-.027h.006a15.412,15.412,0,0,0,4.257-.987,2.377,2.377,0,0,1,3.073,1.361,2.383,2.383,0,0,1-1.364,3.076,20.413,20.413,0,0,1-4.922,1.227,19.144,19.144,0,0,1-2.213.129c-.463,0-.933-.017-1.4-.051a20.3,20.3,0,0,1-4.35-.812l-.885,4.215-.013.027C501.538,13886.3,501.211,13886.407,500.595,13886.407Zm-7.353-1.828a46.773,46.773,0,0,0,7.353,1.328,1.432,1.432,0,0,0,.6-.077l.979-4.662.263.082a19.819,19.819,0,0,0,4.5.87c.451.034.908.051,1.359.051a18.584,18.584,0,0,0,2.156-.126,19.93,19.93,0,0,0,4.8-1.2,1.878,1.878,0,1,0-1.351-3.5,15.952,15.952,0,0,1-4.392,1.019c-.127.014-.254.021-.372.029-.278.016-.559.023-.837.023-.361,0-.728-.014-1.091-.039a17.1,17.1,0,0,1-5.363-1.342l-.028-.012-.024-.018a5.329,5.329,0,0,0-3.077-1.271,3.254,3.254,0,0,0-2.534,1.342,17.683,17.683,0,0,0-2.535,5.369A12.79,12.79,0,0,0,493.242,13884.579Zm14.724-6.967H507.8a14.724,14.724,0,0,1-4.632-1.052l0,0c-1.589-.656-3.594-1.7-3.611-1.707l-.134-.072,0-.152a4.457,4.457,0,0,1,1.855-3.564,4.7,4.7,0,0,1,2.845-.952,4.776,4.776,0,0,1,2.08.479,4.685,4.685,0,0,1,1.7,1.405,4.732,4.732,0,0,1,.133,5.508Zm-4.609-1.517a14.5,14.5,0,0,0,4.344,1.016,4.232,4.232,0,0,0-6.119-5.649,3.972,3.972,0,0,0-1.65,3.021C500.409,13874.727,502.044,13875.554,503.356,13876.1Z" transform="translate(-487.573 -13870.11)" fill="rgba(0,0,0,0)"/>
      <path id="타원_454" data-name="타원 454" d="M5.448-4A9.448,9.448,0,1,1-4,5.448,9.459,9.459,0,0,1,5.448-4Zm0,14.9A5.448,5.448,0,1,0,0,5.448,5.454,5.454,0,0,0,5.448,10.9Z" transform="translate(4 16.225)" fill="#fff"/>
    </g>
  </g>
</svg>
