<svg id="icon_2" xmlns="http://www.w3.org/2000/svg" width="32" height="32" viewBox="0 0 32 32">
  <rect id="사각형_3925" data-name="사각형 3925" width="32" height="32" fill="none"/>
  <path id="bxs-like" d="M5.939,31.634H7.408V14.777H5.939A2.977,2.977,0,0,0,3,17.791V28.62A2.977,2.977,0,0,0,5.939,31.634ZM29.449,13.41H19.163l1.649-6.443a3.078,3.078,0,0,0-.4-2.715A2.916,2.916,0,0,0,18.024,3h-.33L10.347,13.93v17.7s14.689,1.121,18.279-.877,3.633-10.711,3.762-14.334A2.977,2.977,0,0,0,29.449,13.41Z" transform="translate(-1.001 -1.666)" fill="#fff"/>
</svg>
