<svg id="icon_1" xmlns="http://www.w3.org/2000/svg" xmlns:xlink="http://www.w3.org/1999/xlink" width="32" height="32" viewBox="0 0 32 32">
  <defs>
    <clipPath id="clip-path">
      <rect id="사각형_3963" data-name="사각형 3963" width="32" height="32" fill="#fff" opacity="0.46"/>
    </clipPath>
  </defs>
  <g id="마스크_그룹_20" data-name="마스크 그룹 20" clip-path="url(#clip-path)">
    <g id="그룹_4631" data-name="그룹 4631" transform="translate(2.05 0.695)">
      <path id="패스_6764" data-name="패스 6764" d="M27.826,4.743a4.493,4.493,0,1,0-8.737,1.205,47.17,47.17,0,0,0-6.038-4.106,2.205,2.205,0,0,0-2.312.279L3.89,7.684c-2.267,1.842.5,5.288,2.765,3.443L12.211,6.6l1.848,1.31L9.992,13.518l8.7,6.808,4.3-.028-4.155,8.479c-.594,2.346,3.594,2.951,4.157.6l4.382-10.059c.629-1.8.078-3.261-1.607-3.244l-7.65.078,3.747-3.772c1.025-.8,1.842-2.321,1.117-3.4l.109.007a4.492,4.492,0,0,0,4.735-4.236" transform="translate(-0.155 0)" fill="#fff" fill-rule="evenodd"/>
      <path id="타원_455" data-name="타원 455" d="M5.448-4A9.448,9.448,0,1,1-4,5.448,9.459,9.459,0,0,1,5.448-4Zm0,14.9A5.448,5.448,0,1,0,0,5.448,5.454,5.454,0,0,0,5.448,10.9Z" transform="translate(4 15.933)" fill="#fff"/>
    </g>
  </g>
</svg>
