<svg id="icon_7" xmlns="http://www.w3.org/2000/svg" xmlns:xlink="http://www.w3.org/1999/xlink" width="32" height="32" viewBox="0 0 32 32">
  <defs>
    <clipPath id="clip-path">
      <rect id="사각형_3962" data-name="사각형 3962" width="32" height="32" transform="translate(0.333)" fill="#fff" opacity="0.47"/>
    </clipPath>
    <clipPath id="clip-path-2">
      <rect id="사각형_3961" data-name="사각형 3961" width="29.957" height="70.094" fill="#fff"/>
    </clipPath>
  </defs>
  <g id="마스크_그룹_19" data-name="마스크 그룹 19" transform="translate(-0.333)" clip-path="url(#clip-path)">
    <g id="그룹_4630" data-name="그룹 4630" transform="translate(0.855 1.82)">
      <g id="그룹_4629" data-name="그룹 4629" transform="translate(0)" clip-path="url(#clip-path-2)">
        <path id="패스_6762" data-name="패스 6762" d="M14.978,44.015,16.66,67.26a3.184,3.184,0,0,0,3.269,2.833,3.218,3.218,0,0,0,.379-.018,3.183,3.183,0,0,0,2.828-3.5L21.441,35.088c-.275-5.588-.648-8.9.3-14.432a9.185,9.185,0,0,0,2-1.032,12.919,12.919,0,0,0,5.427-6.833,17.285,17.285,0,0,0-.311-11.2A2.389,2.389,0,1,0,24.35,3.185a12.49,12.49,0,0,1,.292,8.055,8.209,8.209,0,0,1-2.595,3.731c-1.773,1.454-4.834.839-7.07.882-2.236-.043-5.3.572-7.07-.882A8.208,8.208,0,0,1,5.314,11.24a12.489,12.489,0,0,1,.292-8.055A2.389,2.389,0,0,0,1.1,1.6a17.284,17.284,0,0,0-.311,11.2,12.917,12.917,0,0,0,5.427,6.833,9.184,9.184,0,0,0,2,1.032c.949,5.533.575,8.844.3,14.432L6.82,66.574a3.183,3.183,0,0,0,2.828,3.5,3.223,3.223,0,0,0,.379.018A3.184,3.184,0,0,0,13.3,67.26Z" transform="translate(0 -0.001)" fill="#fff" fill-rule="evenodd"/>
        <path id="패스_6763" data-name="패스 6763" d="M142.722,69.453A5.456,5.456,0,1,0,137.266,64a5.467,5.467,0,0,0,5.456,5.456" transform="translate(-127.744 -54.479)" fill="#fff" fill-rule="evenodd"/>
      </g>
    </g>
  </g>
</svg>
