<svg id="icon_5" xmlns="http://www.w3.org/2000/svg" width="32" height="32" viewBox="0 0 32 32">
  <path id="빼기_2" data-name="빼기 2" d="M15,30A15,15,0,0,1,4.393,4.393,15,15,0,1,1,25.606,25.606,14.9,14.9,0,0,1,15,30Zm0-11.25c-1.378,0-2.5,1.682-2.5,3.75s1.121,3.75,2.5,3.75,2.5-1.682,2.5-3.75S16.377,18.75,15,18.75Zm6.364-4.179h0l2.554,1.346a.441.441,0,0,0,.227.069.211.211,0,0,0,.175-.082.346.346,0,0,0,.06-.2.682.682,0,0,0-.009-.116l-.488-2.845,2.065-2.014a.414.414,0,0,0,.151-.276c0-.139-.108-.226-.322-.261l-2.854-.415L21.642,7.188c-.074-.157-.168-.236-.279-.236s-.2.077-.278.236L19.8,9.776l-2.857.415c-.21.035-.317.123-.317.261a.439.439,0,0,0,.141.276l2.074,2.014-.493,2.845v.008c0,.049-.007.084-.007.108a.317.317,0,0,0,.06.2.208.208,0,0,0,.175.082.486.486,0,0,0,.232-.069l2.553-1.346Zm-12.728,0h0l2.558,1.346a.435.435,0,0,0,.227.069.206.206,0,0,0,.171-.082.339.339,0,0,0,.061-.2.8.8,0,0,0,0-.116l-.488-2.845,2.065-2.014a.4.4,0,0,0,.145-.276c0-.138-.106-.226-.316-.261L10.2,9.776,8.914,7.188c-.075-.159-.167-.236-.279-.236s-.2.079-.279.236L7.075,9.776l-2.854.415c-.213.035-.322.123-.322.261a.436.436,0,0,0,.142.276l2.074,2.014-.488,2.845a.769.769,0,0,0-.013.116.338.338,0,0,0,.061.2.21.21,0,0,0,.18.082.471.471,0,0,0,.226-.069l2.554-1.346Z" transform="translate(1 1)" fill="#fff"/>
  <rect id="사각형_3938" data-name="사각형 3938" width="32" height="32" fill="none"/>
</svg>
