<svg id="part" xmlns="http://www.w3.org/2000/svg" xmlns:xlink="http://www.w3.org/1999/xlink" width="24" height="24" viewBox="0 0 24 24">
  <defs>
    <clipPath id="clip-path">
      <rect id="사각형_4182" data-name="사각형 4182" width="22.015" height="22.028" fill="#888"/>
    </clipPath>
  </defs>
  <rect id="사각형_4177" data-name="사각형 4177" width="24" height="24" fill="none"/>
  <g id="그룹_4892" data-name="그룹 4892" transform="translate(0.891 1)">
    <g id="그룹_4891" data-name="그룹 4891" clip-path="url(#clip-path)">
      <path id="패스_7063" data-name="패스 7063" d="M16.74,11.44a6.684,6.684,0,0,0-4.316,2.877s-3.025-1.66-5.312-.406L5.172,15a.093.093,0,0,1-.133-.116A4.268,4.268,0,0,1,6.911,12.9a.333.333,0,0,0,.151-.39A8.745,8.745,0,0,1,6.89,7.862a12.375,12.375,0,0,1,.5-1.455A.334.334,0,0,1,7.7,6.2h.594c.848,0,2.213-1.107,3.394-1.107.738,0,1.217-.3,1.217-.812a.712.712,0,0,0-.34-.59.318.318,0,0,1-.044-.48.754.754,0,0,0,.237-.48c0-.406-.59-.775-1.844-2.324A.854.854,0,0,0,9.657.189c-.59.443-3.357,2.545-3.984,3.1a7.693,7.693,0,0,0-1.217,2.14C3.9,6.608,1.541,9.965.988,11.514a20.067,20.067,0,0,0-.959,6.271c.148.959,1.955,2.176,2.619,2.361s2.177.516,3.468.848a18.743,18.743,0,0,0,4.906,1.033c2.361,0,4.759-1.439,7.157-1.439.959,0,3.837-1.439,3.837-6.234,0-.01,0-.019,0-.029a3.014,3.014,0,0,0-2.563-2.9,8.328,8.328,0,0,0-2.712.018" transform="translate(0 0.001)" fill="#888"/>
    </g>
  </g>
</svg>
