<svg xmlns="http://www.w3.org/2000/svg" width="63.61" height="53.72" viewBox="0 0 63.61 53.72">
  <g id="Layer_2" data-name="Layer 2" transform="translate(-2.484 -4.5)">
    <path id="패스_1" data-name="패스 1" d="M64.974,55.521,52.315,24.735a1.231,1.231,0,0,0-1.133-.763H35.518V18.43a.591.591,0,0,0,0-.2H51.231a12.61,12.61,0,0,0,11.723-11.5,1.231,1.231,0,0,0-2.463,0,10.245,10.245,0,0,1-9.31,9.039H17.392a10.245,10.245,0,0,1-9.31-9.039,1.231,1.231,0,0,0-2.463,0,12.61,12.61,0,0,0,11.772,11.5H33.1a.591.591,0,0,0,0,.2v5.541H15.3a1.256,1.256,0,0,0-1.182.837L3.575,55.595A1.182,1.182,0,0,0,3.723,56.7a1.281,1.281,0,0,0,1.01.517H63.841a1.256,1.256,0,0,0,1.034-.542,1.207,1.207,0,0,0,.1-1.158ZM6.457,54.757l9.7-28.323H50.345L61.994,54.757Z" transform="translate(0 0)" stroke="#000" stroke-width="2"/>
    <path id="패스_2" data-name="패스 2" d="M26.043,15.842l-5.591,5.443a4.408,4.408,0,0,0-1.97-.493,4.236,4.236,0,1,0,4.31,4.236,4.162,4.162,0,0,0-.542-2.044l5.517-5.369a1.256,1.256,0,0,0,0-1.749A1.231,1.231,0,0,0,26.043,15.842ZM18.458,26.777a1.773,1.773,0,1,1,0-3.522,1.9,1.9,0,0,1,1.158.419h.172a1.6,1.6,0,0,1,.468,1.158,1.8,1.8,0,0,1-1.8,1.946Z" transform="translate(15.829 14.631)" stroke="#000" stroke-width="2"/>
    <path id="패스_3" data-name="패스 3" d="M9.871,10.463h33.79a1.231,1.231,0,1,0,0-2.463H9.871a1.231,1.231,0,0,0,0,2.463Z" transform="translate(7.52 0.657)" stroke="#000" stroke-width="2"/>
  </g>
</svg>
