<svg id="settings" xmlns="http://www.w3.org/2000/svg" xmlns:xlink="http://www.w3.org/1999/xlink" width="24" height="24" viewBox="0 0 24 24">
  <defs>
    <clipPath id="clip-path">
      <rect id="사각형_3958" data-name="사각형 3958" width="20" height="19.996" fill="#fff"/>
    </clipPath>
  </defs>
  <g id="그룹_4230" data-name="그룹 4230" transform="translate(9389 -5428)">
    <rect id="사각형_3687" data-name="사각형 3687" width="24" height="24" transform="translate(-9389 5428)" fill="none"/>
  </g>
  <g id="그룹_4625" data-name="그룹 4625" transform="translate(2 2)">
    <g id="그룹_4625-2" data-name="그룹 4625" clip-path="url(#clip-path)">
      <path id="패스_6761" data-name="패스 6761" d="M18.016,10.018c0-.7.15-.851.15-.851h-.018l1.834-1.083a9.96,9.96,0,0,0-1.616-3.86l-2.034.546a1.307,1.307,0,0,1-.646-.428c-.469-.464-.492-.678-.492-.705l.528-2.048s-.009,0-.009,0L11.853,0,10.819,1.789s-.136.187-.8.187c-.7,0-.851-.155-.851-.155L8.1,0h0l-3.851,1.6.533,2v.009c0,.05-.023.273-.433.687-.487.487-.7.492-.71.492l.023.023L1.584,4.283A10,10,0,0,0,0,8.143L1.816,9.195a1.3,1.3,0,0,1,.164.774c0,.7-.155.846-.155.846H1.9L.013,11.926A10.073,10.073,0,0,0,1.63,15.772h0l2.057-.551a1.381,1.381,0,0,1,.615.423c.492.487.5.7.5.71l.068-.068L4.315,18.43A10.1,10.1,0,0,0,8.184,20l1.079-1.862a1.514,1.514,0,0,1,.705-.123c.706,0,.851.155.851.155v-.1l1.12,1.9a10.113,10.113,0,0,0,3.851-1.625v0l-.555-2.08a1.506,1.506,0,0,1,.414-.583c.487-.487.7-.492.705-.492l-.041-.045,2.1.546A10.062,10.062,0,0,0,20,11.817l-1.857-1.074a1.511,1.511,0,0,1-.127-.724M10,14.42A4.422,4.422,0,1,1,14.419,10,4.423,4.423,0,0,1,10,14.42" fill="#fff"/>
    </g>
  </g>
</svg>
